<mxfile host="app.diagrams.net" agent="Mozilla/5.0 (Windows NT 10.0; Win64; x64; rv:133.0) Gecko/20100101 Firefox/133.0" version="24.9.3">
  <diagram name="Seite-1" id="Cpa8xOZp_i8nYdTgI-lq">
    <mxGraphModel dx="798" dy="1124" grid="1" gridSize="10" guides="1" tooltips="1" connect="1" arrows="1" fold="1" page="1" pageScale="1" pageWidth="1654" pageHeight="2336" math="0" shadow="0">
      <root>
        <mxCell id="0" />
        <mxCell id="1" parent="0" />
        <mxCell id="iuTfrtJoyuVmR6Xd3acX-3" value="Regal" style="rounded=0;whiteSpace=wrap;html=1;" parent="1" vertex="1">
          <mxGeometry x="700" y="530" width="120" height="60" as="geometry" />
        </mxCell>
        <mxCell id="iuTfrtJoyuVmR6Xd3acX-4" value="Ware" style="rounded=0;whiteSpace=wrap;html=1;" parent="1" vertex="1">
          <mxGeometry x="1219.64" y="410" width="120" height="60" as="geometry" />
        </mxCell>
        <mxCell id="iuTfrtJoyuVmR6Xd3acX-6" value="Mitarbeiter" style="rounded=0;whiteSpace=wrap;html=1;" parent="1" vertex="1">
          <mxGeometry x="280" y="410" width="120" height="60" as="geometry" />
        </mxCell>
        <mxCell id="iuTfrtJoyuVmR6Xd3acX-12" value="Großkunde" style="rounded=0;whiteSpace=wrap;html=1;" parent="1" vertex="1">
          <mxGeometry x="700" y="290" width="120" height="60" as="geometry" />
        </mxCell>
        <mxCell id="iuTfrtJoyuVmR6Xd3acX-18" value="bestellt" style="rhombus;whiteSpace=wrap;html=1;" parent="1" vertex="1">
          <mxGeometry x="1020" y="280" width="80" height="80" as="geometry" />
        </mxCell>
        <mxCell id="iuTfrtJoyuVmR6Xd3acX-19" value="Name" style="ellipse;whiteSpace=wrap;html=1;aspect=fixed;" parent="1" vertex="1">
          <mxGeometry x="580" y="160" width="80" height="80" as="geometry" />
        </mxCell>
        <mxCell id="iuTfrtJoyuVmR6Xd3acX-20" value="Adresse" style="ellipse;whiteSpace=wrap;html=1;aspect=fixed;" parent="1" vertex="1">
          <mxGeometry x="720" y="160" width="80" height="80" as="geometry" />
        </mxCell>
        <mxCell id="iuTfrtJoyuVmR6Xd3acX-21" value="Ort" style="ellipse;whiteSpace=wrap;html=1;aspect=fixed;" parent="1" vertex="1">
          <mxGeometry x="660" y="40" width="80" height="80" as="geometry" />
        </mxCell>
        <mxCell id="iuTfrtJoyuVmR6Xd3acX-22" value="Straße" style="ellipse;whiteSpace=wrap;html=1;aspect=fixed;" parent="1" vertex="1">
          <mxGeometry x="780" y="40" width="80" height="80" as="geometry" />
        </mxCell>
        <mxCell id="iuTfrtJoyuVmR6Xd3acX-29" value="" style="endArrow=none;html=1;rounded=0;entryX=1;entryY=0.5;entryDx=0;entryDy=0;exitX=0;exitY=0.5;exitDx=0;exitDy=0;" parent="1" source="iuTfrtJoyuVmR6Xd3acX-18" target="iuTfrtJoyuVmR6Xd3acX-12" edge="1">
          <mxGeometry width="50" height="50" relative="1" as="geometry">
            <mxPoint x="780" y="510" as="sourcePoint" />
            <mxPoint x="830" y="460" as="targetPoint" />
          </mxGeometry>
        </mxCell>
        <mxCell id="BdsreHYWXE9upy7GvJNc-5" value="n" style="edgeLabel;html=1;align=center;verticalAlign=middle;resizable=0;points=[];" parent="iuTfrtJoyuVmR6Xd3acX-29" vertex="1" connectable="0">
          <mxGeometry x="-0.2107" y="-1" relative="1" as="geometry">
            <mxPoint as="offset" />
          </mxGeometry>
        </mxCell>
        <mxCell id="iuTfrtJoyuVmR6Xd3acX-31" value="enthält" style="rhombus;whiteSpace=wrap;html=1;" parent="1" vertex="1">
          <mxGeometry x="1020" y="520" width="80" height="80" as="geometry" />
        </mxCell>
        <mxCell id="iuTfrtJoyuVmR6Xd3acX-33" value="" style="endArrow=none;html=1;rounded=0;entryX=1;entryY=0.5;entryDx=0;entryDy=0;exitX=0;exitY=0.5;exitDx=0;exitDy=0;" parent="1" source="iuTfrtJoyuVmR6Xd3acX-31" target="iuTfrtJoyuVmR6Xd3acX-3" edge="1">
          <mxGeometry width="50" height="50" relative="1" as="geometry">
            <mxPoint x="910" y="450" as="sourcePoint" />
            <mxPoint x="830" y="450" as="targetPoint" />
          </mxGeometry>
        </mxCell>
        <mxCell id="BdsreHYWXE9upy7GvJNc-7" value="n" style="edgeLabel;html=1;align=center;verticalAlign=middle;resizable=0;points=[];" parent="iuTfrtJoyuVmR6Xd3acX-33" vertex="1" connectable="0">
          <mxGeometry x="-0.2107" relative="1" as="geometry">
            <mxPoint as="offset" />
          </mxGeometry>
        </mxCell>
        <mxCell id="iuTfrtJoyuVmR6Xd3acX-34" value="Menge" style="ellipse;whiteSpace=wrap;html=1;aspect=fixed;" parent="1" vertex="1">
          <mxGeometry x="1080" y="640" width="80" height="80" as="geometry" />
        </mxCell>
        <mxCell id="iuTfrtJoyuVmR6Xd3acX-35" value="Menge" style="ellipse;whiteSpace=wrap;html=1;aspect=fixed;" parent="1" vertex="1">
          <mxGeometry x="960" y="400" width="80" height="80" as="geometry" />
        </mxCell>
        <mxCell id="iuTfrtJoyuVmR6Xd3acX-36" value="" style="endArrow=none;html=1;rounded=0;entryX=1;entryY=1;entryDx=0;entryDy=0;exitX=0.5;exitY=0;exitDx=0;exitDy=0;" parent="1" source="iuTfrtJoyuVmR6Xd3acX-34" target="iuTfrtJoyuVmR6Xd3acX-31" edge="1">
          <mxGeometry width="50" height="50" relative="1" as="geometry">
            <mxPoint x="1030" y="780" as="sourcePoint" />
            <mxPoint x="1080" y="730" as="targetPoint" />
          </mxGeometry>
        </mxCell>
        <mxCell id="iuTfrtJoyuVmR6Xd3acX-38" value="Bestand" style="ellipse;whiteSpace=wrap;html=1;aspect=fixed;" parent="1" vertex="1">
          <mxGeometry x="1419.64" y="300" width="80" height="80" as="geometry" />
        </mxCell>
        <mxCell id="iuTfrtJoyuVmR6Xd3acX-40" value="Name" style="ellipse;whiteSpace=wrap;html=1;aspect=fixed;" parent="1" vertex="1">
          <mxGeometry x="1419.64" y="500" width="80" height="80" as="geometry" />
        </mxCell>
        <mxCell id="iuTfrtJoyuVmR6Xd3acX-43" value="&lt;div&gt;Aufgaben-&lt;/div&gt;&lt;div&gt;bereich&lt;br&gt;&lt;/div&gt;" style="ellipse;whiteSpace=wrap;html=1;aspect=fixed;" parent="1" vertex="1">
          <mxGeometry x="140" y="400" width="80" height="80" as="geometry" />
        </mxCell>
        <mxCell id="iuTfrtJoyuVmR6Xd3acX-44" value="Gehalt" style="ellipse;whiteSpace=wrap;html=1;aspect=fixed;" parent="1" vertex="1">
          <mxGeometry x="440" y="280" width="80" height="80" as="geometry" />
        </mxCell>
        <mxCell id="iuTfrtJoyuVmR6Xd3acX-45" value="Wochen-stunden" style="ellipse;whiteSpace=wrap;html=1;aspect=fixed;" parent="1" vertex="1">
          <mxGeometry x="460" y="400" width="80" height="80" as="geometry" />
        </mxCell>
        <mxCell id="iuTfrtJoyuVmR6Xd3acX-47" value="Position" style="ellipse;whiteSpace=wrap;html=1;aspect=fixed;" parent="1" vertex="1">
          <mxGeometry x="720" y="640" width="80" height="80" as="geometry" />
        </mxCell>
        <mxCell id="iuTfrtJoyuVmR6Xd3acX-48" value="Reihe" style="ellipse;whiteSpace=wrap;html=1;aspect=fixed;" parent="1" vertex="1">
          <mxGeometry x="660" y="760" width="80" height="80" as="geometry" />
        </mxCell>
        <mxCell id="iuTfrtJoyuVmR6Xd3acX-49" value="Spalte" style="ellipse;whiteSpace=wrap;html=1;aspect=fixed;" parent="1" vertex="1">
          <mxGeometry x="780" y="760" width="80" height="80" as="geometry" />
        </mxCell>
        <mxCell id="iuTfrtJoyuVmR6Xd3acX-50" value="&lt;div&gt;Kunden-ID&lt;br&gt;&lt;/div&gt;" style="ellipse;whiteSpace=wrap;html=1;aspect=fixed;" parent="1" vertex="1">
          <mxGeometry x="580" y="280" width="80" height="80" as="geometry" />
        </mxCell>
        <mxCell id="iuTfrtJoyuVmR6Xd3acX-51" value="&lt;div&gt;Regal-&lt;/div&gt;&lt;div&gt;ID&lt;br&gt;&lt;/div&gt;" style="ellipse;whiteSpace=wrap;html=1;aspect=fixed;" parent="1" vertex="1">
          <mxGeometry x="580" y="520" width="80" height="80" as="geometry" />
        </mxCell>
        <mxCell id="iuTfrtJoyuVmR6Xd3acX-52" value="&lt;div&gt;Waren-&lt;/div&gt;&lt;div&gt;ID&lt;br&gt;&lt;/div&gt;" style="ellipse;whiteSpace=wrap;html=1;aspect=fixed;" parent="1" vertex="1">
          <mxGeometry x="1419.64" y="400" width="80" height="80" as="geometry" />
        </mxCell>
        <mxCell id="iuTfrtJoyuVmR6Xd3acX-53" value="" style="endArrow=none;html=1;rounded=0;entryX=1;entryY=0.5;entryDx=0;entryDy=0;exitX=0;exitY=0.5;exitDx=0;exitDy=0;" parent="1" source="iuTfrtJoyuVmR6Xd3acX-52" target="iuTfrtJoyuVmR6Xd3acX-4" edge="1">
          <mxGeometry width="50" height="50" relative="1" as="geometry">
            <mxPoint x="1149.64" y="760" as="sourcePoint" />
            <mxPoint x="1199.64" y="710" as="targetPoint" />
          </mxGeometry>
        </mxCell>
        <mxCell id="iuTfrtJoyuVmR6Xd3acX-54" value="" style="endArrow=none;html=1;rounded=0;exitX=0.5;exitY=1;exitDx=0;exitDy=0;entryX=1;entryY=0;entryDx=0;entryDy=0;" parent="1" source="iuTfrtJoyuVmR6Xd3acX-22" target="iuTfrtJoyuVmR6Xd3acX-20" edge="1">
          <mxGeometry width="50" height="50" relative="1" as="geometry">
            <mxPoint x="840" y="180" as="sourcePoint" />
            <mxPoint x="890" y="130" as="targetPoint" />
          </mxGeometry>
        </mxCell>
        <mxCell id="iuTfrtJoyuVmR6Xd3acX-55" value="" style="endArrow=none;html=1;rounded=0;exitX=0.5;exitY=1;exitDx=0;exitDy=0;entryX=0;entryY=0;entryDx=0;entryDy=0;" parent="1" source="iuTfrtJoyuVmR6Xd3acX-21" target="iuTfrtJoyuVmR6Xd3acX-20" edge="1">
          <mxGeometry width="50" height="50" relative="1" as="geometry">
            <mxPoint x="862" y="118" as="sourcePoint" />
            <mxPoint x="798" y="182" as="targetPoint" />
          </mxGeometry>
        </mxCell>
        <mxCell id="iuTfrtJoyuVmR6Xd3acX-57" value="" style="endArrow=none;html=1;rounded=0;exitX=0.5;exitY=1;exitDx=0;exitDy=0;entryX=0.5;entryY=0;entryDx=0;entryDy=0;" parent="1" source="iuTfrtJoyuVmR6Xd3acX-20" target="iuTfrtJoyuVmR6Xd3acX-12" edge="1">
          <mxGeometry width="50" height="50" relative="1" as="geometry">
            <mxPoint x="770" y="130" as="sourcePoint" />
            <mxPoint x="770" y="170" as="targetPoint" />
          </mxGeometry>
        </mxCell>
        <mxCell id="iuTfrtJoyuVmR6Xd3acX-58" value="" style="endArrow=none;html=1;rounded=0;exitX=1;exitY=1;exitDx=0;exitDy=0;entryX=0.25;entryY=0;entryDx=0;entryDy=0;" parent="1" source="iuTfrtJoyuVmR6Xd3acX-19" target="iuTfrtJoyuVmR6Xd3acX-12" edge="1">
          <mxGeometry width="50" height="50" relative="1" as="geometry">
            <mxPoint x="770" y="250" as="sourcePoint" />
            <mxPoint x="770" y="300" as="targetPoint" />
          </mxGeometry>
        </mxCell>
        <mxCell id="iuTfrtJoyuVmR6Xd3acX-59" value="" style="endArrow=none;html=1;rounded=0;exitX=1;exitY=0.5;exitDx=0;exitDy=0;entryX=0;entryY=0.5;entryDx=0;entryDy=0;" parent="1" source="iuTfrtJoyuVmR6Xd3acX-50" target="iuTfrtJoyuVmR6Xd3acX-12" edge="1">
          <mxGeometry width="50" height="50" relative="1" as="geometry">
            <mxPoint x="658" y="238" as="sourcePoint" />
            <mxPoint x="710" y="300" as="targetPoint" />
          </mxGeometry>
        </mxCell>
        <mxCell id="iuTfrtJoyuVmR6Xd3acX-60" value="" style="endArrow=none;html=1;rounded=0;exitX=1;exitY=0.5;exitDx=0;exitDy=0;entryX=0;entryY=0.5;entryDx=0;entryDy=0;" parent="1" source="iuTfrtJoyuVmR6Xd3acX-51" target="iuTfrtJoyuVmR6Xd3acX-3" edge="1">
          <mxGeometry width="50" height="50" relative="1" as="geometry">
            <mxPoint x="670" y="450" as="sourcePoint" />
            <mxPoint x="710" y="450" as="targetPoint" />
          </mxGeometry>
        </mxCell>
        <mxCell id="iuTfrtJoyuVmR6Xd3acX-61" value="" style="endArrow=none;html=1;rounded=0;exitX=0.5;exitY=0;exitDx=0;exitDy=0;entryX=0.5;entryY=1;entryDx=0;entryDy=0;" parent="1" source="iuTfrtJoyuVmR6Xd3acX-47" target="iuTfrtJoyuVmR6Xd3acX-3" edge="1">
          <mxGeometry width="50" height="50" relative="1" as="geometry">
            <mxPoint x="670" y="570" as="sourcePoint" />
            <mxPoint x="710" y="570" as="targetPoint" />
          </mxGeometry>
        </mxCell>
        <mxCell id="iuTfrtJoyuVmR6Xd3acX-62" value="" style="endArrow=none;html=1;rounded=0;exitX=1;exitY=1;exitDx=0;exitDy=0;entryX=0.5;entryY=0;entryDx=0;entryDy=0;" parent="1" source="iuTfrtJoyuVmR6Xd3acX-47" target="iuTfrtJoyuVmR6Xd3acX-49" edge="1">
          <mxGeometry width="50" height="50" relative="1" as="geometry">
            <mxPoint x="770" y="650" as="sourcePoint" />
            <mxPoint x="770" y="600" as="targetPoint" />
          </mxGeometry>
        </mxCell>
        <mxCell id="iuTfrtJoyuVmR6Xd3acX-63" value="" style="endArrow=none;html=1;rounded=0;exitX=0;exitY=1;exitDx=0;exitDy=0;entryX=0.5;entryY=0;entryDx=0;entryDy=0;" parent="1" source="iuTfrtJoyuVmR6Xd3acX-47" target="iuTfrtJoyuVmR6Xd3acX-48" edge="1">
          <mxGeometry width="50" height="50" relative="1" as="geometry">
            <mxPoint x="798" y="718" as="sourcePoint" />
            <mxPoint x="830" y="770" as="targetPoint" />
          </mxGeometry>
        </mxCell>
        <mxCell id="iuTfrtJoyuVmR6Xd3acX-65" value="" style="endArrow=none;html=1;rounded=0;entryX=0;entryY=0.5;entryDx=0;entryDy=0;exitX=1;exitY=0;exitDx=0;exitDy=0;" parent="1" source="iuTfrtJoyuVmR6Xd3acX-4" target="iuTfrtJoyuVmR6Xd3acX-38" edge="1">
          <mxGeometry width="50" height="50" relative="1" as="geometry">
            <mxPoint x="1289.64" y="840" as="sourcePoint" />
            <mxPoint x="1339.64" y="790" as="targetPoint" />
          </mxGeometry>
        </mxCell>
        <mxCell id="iuTfrtJoyuVmR6Xd3acX-66" value="" style="endArrow=none;html=1;rounded=0;entryX=1;entryY=1;entryDx=0;entryDy=0;exitX=0;exitY=0.5;exitDx=0;exitDy=0;" parent="1" source="iuTfrtJoyuVmR6Xd3acX-40" target="iuTfrtJoyuVmR6Xd3acX-4" edge="1">
          <mxGeometry width="50" height="50" relative="1" as="geometry">
            <mxPoint x="1299.64" y="770" as="sourcePoint" />
            <mxPoint x="1349.64" y="720" as="targetPoint" />
          </mxGeometry>
        </mxCell>
        <mxCell id="iuTfrtJoyuVmR6Xd3acX-67" value="&lt;div&gt;Mitarbeiter-&lt;/div&gt;&lt;div&gt;ID&lt;br&gt;&lt;/div&gt;" style="ellipse;whiteSpace=wrap;html=1;aspect=fixed;" parent="1" vertex="1">
          <mxGeometry x="250" y="540" width="80" height="80" as="geometry" />
        </mxCell>
        <mxCell id="iuTfrtJoyuVmR6Xd3acX-68" value="Name" style="ellipse;whiteSpace=wrap;html=1;aspect=fixed;" parent="1" vertex="1">
          <mxGeometry x="160" y="280" width="80" height="80" as="geometry" />
        </mxCell>
        <mxCell id="iuTfrtJoyuVmR6Xd3acX-69" value="Adresse" style="ellipse;whiteSpace=wrap;html=1;aspect=fixed;" parent="1" vertex="1">
          <mxGeometry x="300" y="280" width="80" height="80" as="geometry" />
        </mxCell>
        <mxCell id="iuTfrtJoyuVmR6Xd3acX-70" value="Ort" style="ellipse;whiteSpace=wrap;html=1;aspect=fixed;" parent="1" vertex="1">
          <mxGeometry x="240" y="160" width="80" height="80" as="geometry" />
        </mxCell>
        <mxCell id="iuTfrtJoyuVmR6Xd3acX-71" value="Straße" style="ellipse;whiteSpace=wrap;html=1;aspect=fixed;" parent="1" vertex="1">
          <mxGeometry x="360" y="160" width="80" height="80" as="geometry" />
        </mxCell>
        <mxCell id="iuTfrtJoyuVmR6Xd3acX-73" value="" style="endArrow=none;html=1;rounded=0;exitX=0.5;exitY=1;exitDx=0;exitDy=0;entryX=1;entryY=0;entryDx=0;entryDy=0;" parent="1" source="iuTfrtJoyuVmR6Xd3acX-71" target="iuTfrtJoyuVmR6Xd3acX-69" edge="1">
          <mxGeometry width="50" height="50" relative="1" as="geometry">
            <mxPoint x="420" y="300" as="sourcePoint" />
            <mxPoint x="470" y="250" as="targetPoint" />
          </mxGeometry>
        </mxCell>
        <mxCell id="iuTfrtJoyuVmR6Xd3acX-77" value="" style="endArrow=none;html=1;rounded=0;exitX=1;exitY=1;exitDx=0;exitDy=0;entryX=0.25;entryY=0;entryDx=0;entryDy=0;" parent="1" edge="1">
          <mxGeometry width="50" height="50" relative="1" as="geometry">
            <mxPoint x="230" y="348" as="sourcePoint" />
            <mxPoint x="312" y="410" as="targetPoint" />
          </mxGeometry>
        </mxCell>
        <mxCell id="iuTfrtJoyuVmR6Xd3acX-81" style="rounded=0;orthogonalLoop=1;jettySize=auto;html=1;exitX=1;exitY=0.5;exitDx=0;exitDy=0;entryX=0;entryY=0;entryDx=0;entryDy=0;endArrow=none;endFill=0;" parent="1" source="iuTfrtJoyuVmR6Xd3acX-78" target="iuTfrtJoyuVmR6Xd3acX-68" edge="1">
          <mxGeometry relative="1" as="geometry" />
        </mxCell>
        <mxCell id="iuTfrtJoyuVmR6Xd3acX-78" value="Vorname" style="ellipse;whiteSpace=wrap;html=1;aspect=fixed;" parent="1" vertex="1">
          <mxGeometry x="40" y="220" width="80" height="80" as="geometry" />
        </mxCell>
        <mxCell id="iuTfrtJoyuVmR6Xd3acX-80" style="rounded=0;orthogonalLoop=1;jettySize=auto;html=1;exitX=1;exitY=0.5;exitDx=0;exitDy=0;entryX=0;entryY=1;entryDx=0;entryDy=0;startArrow=none;startFill=0;endArrow=none;endFill=0;" parent="1" source="iuTfrtJoyuVmR6Xd3acX-79" target="iuTfrtJoyuVmR6Xd3acX-68" edge="1">
          <mxGeometry relative="1" as="geometry" />
        </mxCell>
        <mxCell id="iuTfrtJoyuVmR6Xd3acX-79" value="Nachname" style="ellipse;whiteSpace=wrap;html=1;aspect=fixed;" parent="1" vertex="1">
          <mxGeometry x="40" y="340" width="80" height="80" as="geometry" />
        </mxCell>
        <mxCell id="iuTfrtJoyuVmR6Xd3acX-82" value="" style="endArrow=none;html=1;rounded=0;exitX=0;exitY=1;exitDx=0;exitDy=0;entryX=0.75;entryY=0;entryDx=0;entryDy=0;" parent="1" source="iuTfrtJoyuVmR6Xd3acX-44" target="iuTfrtJoyuVmR6Xd3acX-6" edge="1">
          <mxGeometry width="50" height="50" relative="1" as="geometry">
            <mxPoint x="240" y="358" as="sourcePoint" />
            <mxPoint x="322" y="420" as="targetPoint" />
          </mxGeometry>
        </mxCell>
        <mxCell id="iuTfrtJoyuVmR6Xd3acX-83" value="Preis" style="ellipse;whiteSpace=wrap;html=1;aspect=fixed;" parent="1" vertex="1">
          <mxGeometry x="1239.64" y="260" width="80" height="80" as="geometry" />
        </mxCell>
        <mxCell id="iuTfrtJoyuVmR6Xd3acX-84" value="" style="endArrow=none;html=1;rounded=0;entryX=1;entryY=0.5;entryDx=0;entryDy=0;exitX=0;exitY=0.75;exitDx=0;exitDy=0;" parent="1" source="iuTfrtJoyuVmR6Xd3acX-4" target="iuTfrtJoyuVmR6Xd3acX-31" edge="1">
          <mxGeometry width="50" height="50" relative="1" as="geometry">
            <mxPoint x="1130" y="540" as="sourcePoint" />
            <mxPoint x="1180" y="490" as="targetPoint" />
          </mxGeometry>
        </mxCell>
        <mxCell id="BdsreHYWXE9upy7GvJNc-8" value="m" style="edgeLabel;html=1;align=center;verticalAlign=middle;resizable=0;points=[];" parent="iuTfrtJoyuVmR6Xd3acX-84" vertex="1" connectable="0">
          <mxGeometry x="-0.0857" y="-1" relative="1" as="geometry">
            <mxPoint as="offset" />
          </mxGeometry>
        </mxCell>
        <mxCell id="iuTfrtJoyuVmR6Xd3acX-85" value="" style="endArrow=none;html=1;rounded=0;entryX=1;entryY=0.5;entryDx=0;entryDy=0;exitX=0;exitY=0.25;exitDx=0;exitDy=0;" parent="1" source="iuTfrtJoyuVmR6Xd3acX-4" target="iuTfrtJoyuVmR6Xd3acX-18" edge="1">
          <mxGeometry width="50" height="50" relative="1" as="geometry">
            <mxPoint x="1150" y="405" as="sourcePoint" />
            <mxPoint x="1070" y="450" as="targetPoint" />
          </mxGeometry>
        </mxCell>
        <mxCell id="BdsreHYWXE9upy7GvJNc-6" value="m" style="edgeLabel;html=1;align=center;verticalAlign=middle;resizable=0;points=[];" parent="iuTfrtJoyuVmR6Xd3acX-85" vertex="1" connectable="0">
          <mxGeometry x="0.0071" y="-1" relative="1" as="geometry">
            <mxPoint as="offset" />
          </mxGeometry>
        </mxCell>
        <mxCell id="iuTfrtJoyuVmR6Xd3acX-86" value="" style="endArrow=none;html=1;rounded=0;entryX=0.5;entryY=1;entryDx=0;entryDy=0;exitX=0.5;exitY=0;exitDx=0;exitDy=0;" parent="1" source="iuTfrtJoyuVmR6Xd3acX-4" target="iuTfrtJoyuVmR6Xd3acX-83" edge="1">
          <mxGeometry width="50" height="50" relative="1" as="geometry">
            <mxPoint x="1349.64" y="420" as="sourcePoint" />
            <mxPoint x="1429.64" y="350" as="targetPoint" />
          </mxGeometry>
        </mxCell>
        <mxCell id="iuTfrtJoyuVmR6Xd3acX-90" value="" style="endArrow=none;html=1;rounded=0;exitX=1;exitY=0.5;exitDx=0;exitDy=0;entryX=0;entryY=0.5;entryDx=0;entryDy=0;" parent="1" source="iuTfrtJoyuVmR6Xd3acX-6" target="iuTfrtJoyuVmR6Xd3acX-45" edge="1">
          <mxGeometry width="50" height="50" relative="1" as="geometry">
            <mxPoint x="400" y="479" as="sourcePoint" />
            <mxPoint x="460" y="479" as="targetPoint" />
          </mxGeometry>
        </mxCell>
        <mxCell id="iuTfrtJoyuVmR6Xd3acX-91" value="" style="endArrow=none;html=1;rounded=0;exitX=1;exitY=0.5;exitDx=0;exitDy=0;entryX=0;entryY=0.5;entryDx=0;entryDy=0;" parent="1" source="iuTfrtJoyuVmR6Xd3acX-43" target="iuTfrtJoyuVmR6Xd3acX-6" edge="1">
          <mxGeometry width="50" height="50" relative="1" as="geometry">
            <mxPoint x="410" y="450" as="sourcePoint" />
            <mxPoint x="470" y="450" as="targetPoint" />
          </mxGeometry>
        </mxCell>
        <mxCell id="iuTfrtJoyuVmR6Xd3acX-92" value="" style="endArrow=none;html=1;rounded=0;exitX=0.25;exitY=1;exitDx=0;exitDy=0;entryX=0.5;entryY=0;entryDx=0;entryDy=0;" parent="1" source="iuTfrtJoyuVmR6Xd3acX-6" target="iuTfrtJoyuVmR6Xd3acX-67" edge="1">
          <mxGeometry width="50" height="50" relative="1" as="geometry">
            <mxPoint x="440" y="590" as="sourcePoint" />
            <mxPoint x="440" y="640" as="targetPoint" />
          </mxGeometry>
        </mxCell>
        <mxCell id="iuTfrtJoyuVmR6Xd3acX-97" value="" style="endArrow=none;html=1;rounded=0;exitX=0.5;exitY=0;exitDx=0;exitDy=0;entryX=0.5;entryY=1;entryDx=0;entryDy=0;" parent="1" source="iuTfrtJoyuVmR6Xd3acX-6" target="iuTfrtJoyuVmR6Xd3acX-69" edge="1">
          <mxGeometry width="50" height="50" relative="1" as="geometry">
            <mxPoint x="350" y="250" as="sourcePoint" />
            <mxPoint x="350" y="290" as="targetPoint" />
          </mxGeometry>
        </mxCell>
        <mxCell id="BdsreHYWXE9upy7GvJNc-1" value="&lt;div&gt;Geburts-&lt;/div&gt;&lt;div&gt;datum&lt;/div&gt;" style="ellipse;whiteSpace=wrap;html=1;aspect=fixed;" parent="1" vertex="1">
          <mxGeometry x="450" y="500" width="80" height="80" as="geometry" />
        </mxCell>
        <mxCell id="BdsreHYWXE9upy7GvJNc-2" value="" style="endArrow=none;html=1;rounded=0;exitX=1;exitY=1;exitDx=0;exitDy=0;entryX=0;entryY=0;entryDx=0;entryDy=0;" parent="1" source="iuTfrtJoyuVmR6Xd3acX-6" target="BdsreHYWXE9upy7GvJNc-1" edge="1">
          <mxGeometry width="50" height="50" relative="1" as="geometry">
            <mxPoint x="410" y="450" as="sourcePoint" />
            <mxPoint x="470" y="450" as="targetPoint" />
          </mxGeometry>
        </mxCell>
        <mxCell id="BdsreHYWXE9upy7GvJNc-3" value="Vorgesetzter" style="ellipse;whiteSpace=wrap;html=1;aspect=fixed;" parent="1" vertex="1">
          <mxGeometry x="160" y="500" width="80" height="80" as="geometry" />
        </mxCell>
        <mxCell id="BdsreHYWXE9upy7GvJNc-4" value="" style="endArrow=none;html=1;rounded=0;exitX=1;exitY=0;exitDx=0;exitDy=0;entryX=0;entryY=1;entryDx=0;entryDy=0;" parent="1" source="BdsreHYWXE9upy7GvJNc-3" target="iuTfrtJoyuVmR6Xd3acX-6" edge="1">
          <mxGeometry width="50" height="50" relative="1" as="geometry">
            <mxPoint x="240" y="358" as="sourcePoint" />
            <mxPoint x="322" y="420" as="targetPoint" />
          </mxGeometry>
        </mxCell>
        <mxCell id="BdsreHYWXE9upy7GvJNc-9" value="&lt;div&gt;Registrierungs-&lt;/div&gt;&lt;div&gt;datum&lt;br&gt;&lt;/div&gt;" style="ellipse;whiteSpace=wrap;html=1;aspect=fixed;" parent="1" vertex="1">
          <mxGeometry x="600" y="400" width="80" height="80" as="geometry" />
        </mxCell>
        <mxCell id="BdsreHYWXE9upy7GvJNc-10" value="&lt;div&gt;Gesamt-&lt;/div&gt;&lt;div&gt;ausgaben&lt;br&gt;&lt;/div&gt;" style="ellipse;whiteSpace=wrap;html=1;aspect=fixed;" parent="1" vertex="1">
          <mxGeometry x="720" y="400" width="80" height="80" as="geometry" />
        </mxCell>
        <mxCell id="BdsreHYWXE9upy7GvJNc-11" value="" style="endArrow=none;html=1;rounded=0;exitX=1;exitY=0;exitDx=0;exitDy=0;entryX=0.25;entryY=1;entryDx=0;entryDy=0;" parent="1" source="BdsreHYWXE9upy7GvJNc-9" target="iuTfrtJoyuVmR6Xd3acX-12" edge="1">
          <mxGeometry width="50" height="50" relative="1" as="geometry">
            <mxPoint x="658" y="238" as="sourcePoint" />
            <mxPoint x="740" y="300" as="targetPoint" />
          </mxGeometry>
        </mxCell>
        <mxCell id="BdsreHYWXE9upy7GvJNc-12" value="" style="endArrow=none;html=1;rounded=0;exitX=0.5;exitY=0;exitDx=0;exitDy=0;entryX=0.5;entryY=1;entryDx=0;entryDy=0;" parent="1" source="BdsreHYWXE9upy7GvJNc-10" target="iuTfrtJoyuVmR6Xd3acX-12" edge="1">
          <mxGeometry width="50" height="50" relative="1" as="geometry">
            <mxPoint x="658" y="422" as="sourcePoint" />
            <mxPoint x="740" y="360" as="targetPoint" />
          </mxGeometry>
        </mxCell>
        <mxCell id="BdsreHYWXE9upy7GvJNc-13" value="Platzbedarf" style="ellipse;whiteSpace=wrap;html=1;aspect=fixed;" parent="1" vertex="1">
          <mxGeometry x="1299.64" y="540" width="80" height="80" as="geometry" />
        </mxCell>
        <mxCell id="BdsreHYWXE9upy7GvJNc-14" value="" style="endArrow=none;html=1;rounded=0;entryX=0.75;entryY=1;entryDx=0;entryDy=0;exitX=0.5;exitY=0;exitDx=0;exitDy=0;" parent="1" source="BdsreHYWXE9upy7GvJNc-13" target="iuTfrtJoyuVmR6Xd3acX-4" edge="1">
          <mxGeometry width="50" height="50" relative="1" as="geometry">
            <mxPoint x="1429.64" y="550" as="sourcePoint" />
            <mxPoint x="1349.64" y="480" as="targetPoint" />
          </mxGeometry>
        </mxCell>
        <mxCell id="BdsreHYWXE9upy7GvJNc-15" value="Kapazität" style="ellipse;whiteSpace=wrap;html=1;aspect=fixed;" parent="1" vertex="1">
          <mxGeometry x="600" y="640" width="80" height="80" as="geometry" />
        </mxCell>
        <mxCell id="BdsreHYWXE9upy7GvJNc-16" value="" style="endArrow=none;html=1;rounded=0;exitX=1;exitY=0;exitDx=0;exitDy=0;entryX=0.25;entryY=1;entryDx=0;entryDy=0;" parent="1" source="BdsreHYWXE9upy7GvJNc-15" target="iuTfrtJoyuVmR6Xd3acX-3" edge="1">
          <mxGeometry width="50" height="50" relative="1" as="geometry">
            <mxPoint x="670" y="570" as="sourcePoint" />
            <mxPoint x="710" y="570" as="targetPoint" />
          </mxGeometry>
        </mxCell>
        <mxCell id="BdsreHYWXE9upy7GvJNc-17" value="Temperatur" style="ellipse;whiteSpace=wrap;html=1;aspect=fixed;" parent="1" vertex="1">
          <mxGeometry x="840" y="640" width="80" height="80" as="geometry" />
        </mxCell>
        <mxCell id="BdsreHYWXE9upy7GvJNc-18" value="Temperatur" style="ellipse;whiteSpace=wrap;html=1;aspect=fixed;" parent="1" vertex="1">
          <mxGeometry x="1179.64" y="540" width="80" height="80" as="geometry" />
        </mxCell>
        <mxCell id="BdsreHYWXE9upy7GvJNc-19" value="" style="endArrow=none;html=1;rounded=0;entryX=0.25;entryY=1;entryDx=0;entryDy=0;exitX=0.623;exitY=0.002;exitDx=0;exitDy=0;exitPerimeter=0;" parent="1" source="BdsreHYWXE9upy7GvJNc-18" target="iuTfrtJoyuVmR6Xd3acX-4" edge="1">
          <mxGeometry width="50" height="50" relative="1" as="geometry">
            <mxPoint x="1349.64" y="550" as="sourcePoint" />
            <mxPoint x="1319.64" y="480" as="targetPoint" />
          </mxGeometry>
        </mxCell>
        <mxCell id="BdsreHYWXE9upy7GvJNc-20" value="" style="endArrow=none;html=1;rounded=0;exitX=0.75;exitY=1;exitDx=0;exitDy=0;entryX=0;entryY=0;entryDx=0;entryDy=0;" parent="1" source="iuTfrtJoyuVmR6Xd3acX-3" target="BdsreHYWXE9upy7GvJNc-17" edge="1">
          <mxGeometry width="50" height="50" relative="1" as="geometry">
            <mxPoint x="678" y="662" as="sourcePoint" />
            <mxPoint x="740" y="600" as="targetPoint" />
          </mxGeometry>
        </mxCell>
        <mxCell id="BdsreHYWXE9upy7GvJNc-21" value="" style="endArrow=none;html=1;rounded=0;entryX=0.5;entryY=0;entryDx=0;entryDy=0;" parent="1" source="iuTfrtJoyuVmR6Xd3acX-18" target="iuTfrtJoyuVmR6Xd3acX-35" edge="1">
          <mxGeometry width="50" height="50" relative="1" as="geometry">
            <mxPoint x="1210" y="360" as="sourcePoint" />
            <mxPoint x="1060" y="400" as="targetPoint" />
          </mxGeometry>
        </mxCell>
        <mxCell id="lBME67sRH_QTWLCMI0Vc-2" value="&lt;div&gt;Abhol-&lt;/div&gt;&lt;div&gt;datum&lt;br&gt;&lt;/div&gt;" style="ellipse;whiteSpace=wrap;html=1;aspect=fixed;" parent="1" vertex="1">
          <mxGeometry x="1020" y="160" width="80" height="80" as="geometry" />
        </mxCell>
        <mxCell id="lBME67sRH_QTWLCMI0Vc-3" value="&lt;div&gt;Bestell-&lt;/div&gt;&lt;div&gt;datum&lt;br&gt;&lt;/div&gt;" style="ellipse;whiteSpace=wrap;html=1;aspect=fixed;" parent="1" vertex="1">
          <mxGeometry x="920" y="180" width="80" height="80" as="geometry" />
        </mxCell>
        <mxCell id="lBME67sRH_QTWLCMI0Vc-4" value="&lt;div&gt;Gesamt-&lt;/div&gt;&lt;div&gt;preis&lt;br&gt;&lt;/div&gt;" style="ellipse;whiteSpace=wrap;html=1;aspect=fixed;" parent="1" vertex="1">
          <mxGeometry x="1120" y="180" width="80" height="80" as="geometry" />
        </mxCell>
        <mxCell id="lBME67sRH_QTWLCMI0Vc-11" value="" style="endArrow=none;html=1;rounded=0;exitX=1;exitY=1;exitDx=0;exitDy=0;entryX=0;entryY=0;entryDx=0;entryDy=0;" parent="1" source="lBME67sRH_QTWLCMI0Vc-3" target="iuTfrtJoyuVmR6Xd3acX-18" edge="1">
          <mxGeometry width="50" height="50" relative="1" as="geometry">
            <mxPoint x="1030" y="370" as="sourcePoint" />
            <mxPoint x="1030" y="410" as="targetPoint" />
          </mxGeometry>
        </mxCell>
        <mxCell id="lBME67sRH_QTWLCMI0Vc-12" value="" style="endArrow=none;html=1;rounded=0;exitX=0.5;exitY=1;exitDx=0;exitDy=0;entryX=0.5;entryY=0;entryDx=0;entryDy=0;" parent="1" source="lBME67sRH_QTWLCMI0Vc-2" target="iuTfrtJoyuVmR6Xd3acX-18" edge="1">
          <mxGeometry width="50" height="50" relative="1" as="geometry">
            <mxPoint x="998" y="258" as="sourcePoint" />
            <mxPoint x="1050" y="310" as="targetPoint" />
          </mxGeometry>
        </mxCell>
        <mxCell id="lBME67sRH_QTWLCMI0Vc-13" value="" style="endArrow=none;html=1;rounded=0;exitX=0;exitY=1;exitDx=0;exitDy=0;entryX=1;entryY=0;entryDx=0;entryDy=0;" parent="1" source="lBME67sRH_QTWLCMI0Vc-4" target="iuTfrtJoyuVmR6Xd3acX-18" edge="1">
          <mxGeometry width="50" height="50" relative="1" as="geometry">
            <mxPoint x="1070" y="250" as="sourcePoint" />
            <mxPoint x="1070" y="290" as="targetPoint" />
          </mxGeometry>
        </mxCell>
        <mxCell id="lBME67sRH_QTWLCMI0Vc-14" value="Passwort" style="ellipse;whiteSpace=wrap;html=1;aspect=fixed;" parent="1" vertex="1">
          <mxGeometry x="350" y="540" width="80" height="80" as="geometry" />
        </mxCell>
        <mxCell id="lBME67sRH_QTWLCMI0Vc-15" value="" style="endArrow=none;html=1;rounded=0;exitX=0.75;exitY=1;exitDx=0;exitDy=0;entryX=0.5;entryY=0;entryDx=0;entryDy=0;" parent="1" source="iuTfrtJoyuVmR6Xd3acX-6" target="lBME67sRH_QTWLCMI0Vc-14" edge="1">
          <mxGeometry width="50" height="50" relative="1" as="geometry">
            <mxPoint x="320" y="480" as="sourcePoint" />
            <mxPoint x="290" y="530" as="targetPoint" />
          </mxGeometry>
        </mxCell>
        <mxCell id="lBME67sRH_QTWLCMI0Vc-16" value="Passwort" style="ellipse;whiteSpace=wrap;html=1;aspect=fixed;" parent="1" vertex="1">
          <mxGeometry x="840" y="400" width="80" height="80" as="geometry" />
        </mxCell>
        <mxCell id="lBME67sRH_QTWLCMI0Vc-17" value="" style="endArrow=none;html=1;rounded=0;exitX=0;exitY=0;exitDx=0;exitDy=0;entryX=0.75;entryY=1;entryDx=0;entryDy=0;" parent="1" source="lBME67sRH_QTWLCMI0Vc-16" target="iuTfrtJoyuVmR6Xd3acX-12" edge="1">
          <mxGeometry width="50" height="50" relative="1" as="geometry">
            <mxPoint x="770" y="410" as="sourcePoint" />
            <mxPoint x="770" y="360" as="targetPoint" />
          </mxGeometry>
        </mxCell>
        <mxCell id="lBME67sRH_QTWLCMI0Vc-20" value="&lt;div&gt;Bestell-ID&lt;/div&gt;" style="ellipse;whiteSpace=wrap;html=1;aspect=fixed;" parent="1" vertex="1">
          <mxGeometry x="1080" y="400" width="80" height="80" as="geometry" />
        </mxCell>
        <mxCell id="lBME67sRH_QTWLCMI0Vc-21" value="" style="endArrow=none;html=1;rounded=0;entryX=0.5;entryY=0;entryDx=0;entryDy=0;" parent="1" target="lBME67sRH_QTWLCMI0Vc-20" edge="1">
          <mxGeometry width="50" height="50" relative="1" as="geometry">
            <mxPoint x="1080" y="340" as="sourcePoint" />
            <mxPoint x="1010" y="410" as="targetPoint" />
          </mxGeometry>
        </mxCell>
        <mxCell id="lBME67sRH_QTWLCMI0Vc-22" value="" style="endArrow=none;html=1;rounded=0;exitX=0.5;exitY=1;exitDx=0;exitDy=0;entryX=0;entryY=0;entryDx=0;entryDy=0;" parent="1" source="iuTfrtJoyuVmR6Xd3acX-70" target="iuTfrtJoyuVmR6Xd3acX-69" edge="1">
          <mxGeometry width="50" height="50" relative="1" as="geometry">
            <mxPoint x="410" y="250" as="sourcePoint" />
            <mxPoint x="378" y="302" as="targetPoint" />
          </mxGeometry>
        </mxCell>
        <mxCell id="r9LdEdczdce49IaDv8Mr-1" value="Enthält-ID" style="ellipse;whiteSpace=wrap;html=1;aspect=fixed;" vertex="1" parent="1">
          <mxGeometry x="960" y="640" width="80" height="80" as="geometry" />
        </mxCell>
        <mxCell id="r9LdEdczdce49IaDv8Mr-2" value="" style="endArrow=none;html=1;rounded=0;entryX=0;entryY=1;entryDx=0;entryDy=0;exitX=0.5;exitY=0;exitDx=0;exitDy=0;" edge="1" parent="1" source="r9LdEdczdce49IaDv8Mr-1" target="iuTfrtJoyuVmR6Xd3acX-31">
          <mxGeometry width="50" height="50" relative="1" as="geometry">
            <mxPoint x="1130" y="650" as="sourcePoint" />
            <mxPoint x="1090" y="590" as="targetPoint" />
          </mxGeometry>
        </mxCell>
      </root>
    </mxGraphModel>
  </diagram>
</mxfile>
